<svg width="1920" height="656" viewBox="0 0 1920 656" fill="none" xmlns="http://www.w3.org/2000/svg">
<path d="M-107 72.8317C-107 63.8228 -107 59.3183 -104.244 56.4224C-101.489 53.5264 -96.9896 53.303 -87.9918 52.8563L960.5 0.800049L2008.99 52.8563C2017.99 53.303 2022.49 53.5264 2025.24 56.4224C2028 59.3183 2028 63.8228 2028 72.8317V582.777C2028 591.782 2028 596.285 2025.25 599.18C2022.49 602.076 2017.99 602.301 2009 602.752L960.5 655.3L-88.0011 602.752C-96.9949 602.301 -101.492 602.076 -104.246 599.18C-107 596.285 -107 591.782 -107 582.777V72.8317Z" fill="#1F222E"/>
<path d="M-107 72.8317C-107 63.8228 -107 59.3183 -104.244 56.4224C-101.489 53.5264 -96.9896 53.303 -87.9918 52.8563L960.5 0.800049L2008.99 52.8563C2017.99 53.303 2022.49 53.5264 2025.24 56.4224C2028 59.3183 2028 63.8228 2028 72.8317V582.777C2028 591.782 2028 596.285 2025.25 599.18C2022.49 602.076 2017.99 602.301 2009 602.752L960.5 655.3L-88.0011 602.752C-96.9949 602.301 -101.492 602.076 -104.246 599.18C-107 596.285 -107 591.782 -107 582.777V72.8317Z" fill="url(#paint0_linear_165_152)"/>
<path d="M-175 408.154C-81.3333 312.821 107.3 148.954 112.5 256.154C119 390.154 105.5 515.654 327.5 447.154C549.5 378.654 972.5 203.748 974 334.248C975.5 464.748 1265.5 525.654 1376.5 447.154C1487.5 368.654 1696.81 25.4434 1742.5 203.248C1788.5 382.248 1934.67 399.487 2014.5 395.154" stroke="url(#paint1_linear_165_152)" stroke-width="70"/>
<defs>
<linearGradient id="paint0_linear_165_152" x1="-107" y1="327.8" x2="2028" y2="327.8" gradientUnits="userSpaceOnUse">
<stop stop-color="#8D25CC"/>
<stop offset="1" stop-color="#328EE3"/>
</linearGradient>
<linearGradient id="paint1_linear_165_152" x1="-175" y1="353.653" x2="2014.5" y2="353.653" gradientUnits="userSpaceOnUse">
<stop stop-color="#6921B4"/>
<stop offset="1" stop-color="#2E6ABD"/>
</linearGradient>
</defs>
</svg>
