<svg width="176" height="62" viewBox="0 0 176 62" fill="none" xmlns="http://www.w3.org/2000/svg">
<path d="M156.061 31.8605C156.646 31.2747 156.646 30.3249 156.061 29.7392L146.515 20.1932C145.929 19.6074 144.979 19.6074 144.393 20.1932C143.808 20.779 143.808 21.7287 144.393 22.3145L152.879 30.7998L144.393 39.2851C143.808 39.8709 143.808 40.8206 144.393 41.4064C144.979 41.9922 145.929 41.9922 146.515 41.4064L156.061 31.8605ZM-1.31134e-07 32.2998L155 32.2998L155 29.2998L1.31134e-07 29.2998L-1.31134e-07 32.2998Z" fill="white"/>
<circle cx="145.5" cy="31.2998" r="30.5" fill="white"/>
<path class="pp" d="M156.061 31.8605C156.646 31.2747 156.646 30.3249 156.061 29.7391L146.515 20.1932C145.929 19.6074 144.979 19.6074 144.393 20.1932C143.808 20.779 143.808 21.7287 144.393 22.3145L152.879 30.7998L144.393 39.2851C143.808 39.8709 143.808 40.8206 144.393 41.4064C144.979 41.9922 145.929 41.9922 146.515 41.4064L156.061 31.8605ZM115 32.2998L155 32.2998L155 29.2998L115 29.2998L115 32.2998Z" fill="#446FC9"/>
</svg>
