<svg width="105" height="43" viewBox="0 0 105 43" fill="none" xmlns="http://www.w3.org/2000/svg">
<g clip-path="url(#clip0_189_372)">
<path fill-rule="evenodd" clip-rule="evenodd" d="M73.1998 20.9896C73.1998 20.9896 69.8411 22.2101 71.7603 23.7755C73.6529 25.3674 76.8517 20.6182 82.9827 24.0939C82.9561 24.0939 80.0772 18.814 73.1998 20.9896Z" fill="#D507D3"/>
<path fill-rule="evenodd" clip-rule="evenodd" d="M16.3664 22.0515C17.6192 21.9453 18.8721 22.7413 19.1653 23.9883C19.4585 25.2883 18.6055 26.6415 17.1128 26.9333C15.46 27.2517 14.0206 26.1374 13.9406 24.6781C13.834 23.2985 14.9536 22.1576 16.3664 22.0515Z" fill="#6622CC"/>
<path fill-rule="evenodd" clip-rule="evenodd" d="M0 9.07813C0.0266565 14.5172 4.15842 17.25 8.23686 17.25C11.1957 17.25 14.2346 15.9764 15.4075 12.6334C15.9672 11.068 15.9672 9.5557 15.8606 7.96379H8.26352V11.4925H11.6756C10.9292 13.0314 9.88957 13.4559 8.23686 13.4559C5.81112 13.4559 4.23839 11.7313 4.23839 9.07813C4.23839 6.63719 5.65118 4.62077 8.23686 4.62077C9.86291 4.62077 10.9292 5.17794 11.5956 6.53106H15.6207C14.8477 2.55128 11.4623 0.879768 8.23686 0.879768C4.15842 0.879768 0.0266565 3.61255 0 9.07813ZM28.7357 17.0642H32.7609V16.454L25.5103 0.879768H23.751L16.527 16.454V17.0377H20.5255L21.4585 15.0213H27.8027L28.7357 17.0642ZM26.4699 11.5456H22.818L24.6306 7.35355L26.4699 11.5456ZM37.1325 12.1824H33.1607C33.0807 19.2133 46.1424 19.1072 46.1424 12.3946C46.1424 8.3883 43.0236 7.91072 39.8248 7.56581C38.3854 7.40662 37.1858 7.16783 37.2658 5.94736C37.3991 4.0636 41.7174 3.87787 41.7174 6.00043H45.6093C45.6893 -0.89787 33.214 -0.89787 33.3473 6.00043C33.4006 9.4761 35.6931 10.67 39.1851 10.9088C40.7845 10.9884 42.1173 11.2537 42.1173 12.3681C42.1706 14.2253 37.1325 14.1988 37.1325 12.1824ZM57.9246 11.864V8.22911H52.7799V4.72689H58.6177V1.06549H48.6215V17.0377H52.7799V11.864H57.9246ZM76.6641 9.07813C76.6641 -1.98568 60.1904 -1.98568 60.1904 9.07813C60.1904 20.1685 76.6641 20.1685 76.6641 9.07813ZM64.4288 9.07813C64.4288 3.3207 72.479 3.3207 72.479 9.07813C72.479 14.8886 64.4288 14.8886 64.4288 9.07813ZM89.6192 11.3864C93.671 8.65362 92.5247 1.09202 86.2072 1.06549H79.1698V17.0377H83.2749V12.3416H85.4075L88.1531 17.0377H92.7647V16.454L89.6192 11.3864ZM86.2072 8.73321H83.2749V4.72689C84.2346 4.72689 85.2475 4.70036 86.2072 4.72689C88.5529 4.75343 88.4463 8.73321 86.2072 8.73321ZM97.0297 4.72689V17.0642H101.081V4.72689H105V1.06549H93.0579V4.72689H97.0297Z" fill="#383838"/>
<path fill-rule="evenodd" clip-rule="evenodd" d="M102.467 23.113C102.467 23.113 101.215 40.7832 74.7179 35.9013C41.6639 29.8255 46.4621 24.2538 26.6563 31.0195C4.87789 38.4484 3.17188 25.3682 3.17188 25.3682C3.17188 25.3682 10.9023 33.142 24.4171 28.101C29.9883 26.0315 37.1323 20.2475 46.1155 20.3802C58.4308 20.5659 56.9914 31.9746 72.5055 32.1073C81.6486 32.1869 91.5382 24.413 91.8314 24.4661C91.9114 24.4926 102.254 21.7598 102.467 23.113Z" fill="url(#paint0_linear_189_372)"/>
<path fill-rule="evenodd" clip-rule="evenodd" d="M8.13011 34.9747C8.13011 34.9747 17.4332 40.9975 29.2421 35.3992C39.4782 30.5439 44.0631 31.7644 48.5147 32.8787C57.6846 35.187 63.3357 43.7568 75.8376 39.6709C80.7958 38.0524 81.5155 30.8092 81.5155 30.8092C81.5155 30.8092 69.8666 21.3904 57.7912 28.7397L44.9428 27.7846L34.3868 29.7479C34.3868 29.7479 13.8879 37.6014 4.26491 25.5294C3.89172 25.0518 2.79881 24.9987 2.50558 24.7069C1.59926 23.8313 1.22607 23.0088 1.1461 23.4068C0.586316 26.3253 2.5589 31.5256 8.13011 34.9747Z" fill="url(#paint1_linear_189_372)"/>
<path fill-rule="evenodd" clip-rule="evenodd" d="M4.87915 29.7987C4.87915 29.7987 12.183 36.4051 24.2584 32.9294C35.9073 29.5864 39.7192 28.0476 48.0094 29.3476C57.8723 30.8599 61.7375 40.491 69.8677 40.5972C76.9317 40.7033 79.7573 37.944 85.5417 31.311C89.167 27.172 92.9256 23.4841 101.056 23.2453C103.881 23.1657 102.335 22.4759 98.7367 22.2901C94.4184 22.0779 86.8213 22.7412 79.9705 28.3925C67.9485 38.3419 60.7779 19.4778 33.3483 28.4986C15.4085 34.3887 8.98425 29.5068 2.10687 23.7229C0.347544 22.2371 1.6004 24.9964 1.6004 24.9964C1.6004 24.9964 3.17313 28.3129 4.87915 29.7987Z" fill="url(#paint2_linear_189_372)"/>
<path fill-rule="evenodd" clip-rule="evenodd" d="M91.9918 37.2822C93.4046 37.2292 94.6574 38.2639 94.844 39.6701C95.004 41.0498 94.1243 42.3764 92.7648 42.7213C91.2987 43.1192 89.8059 42.2437 89.4061 40.7844C89.3794 40.6783 89.3528 40.5722 89.3528 40.4926C89.1129 38.9803 90.1525 37.5741 91.6719 37.3353C91.7785 37.2822 91.8852 37.2822 91.9918 37.2822Z" fill="#FADD2E"/>
<path fill-rule="evenodd" clip-rule="evenodd" d="M34.7076 36.2715C34.7076 36.2715 31.5621 39.2696 35.0008 40.1452C38.706 41.1003 40.7586 34.6796 51.6611 39.8799C51.6611 39.9064 42.1714 30.2488 34.7076 36.2715Z" fill="#781ECD"/>
</g>
<defs>
<linearGradient id="paint0_linear_189_372" x1="51.3866" y1="19.9848" x2="56.6855" y2="36.3698" gradientUnits="userSpaceOnUse">
<stop stop-color="#F9C540"/>
<stop offset="1" stop-color="#FAE925"/>
</linearGradient>
<linearGradient id="paint1_linear_189_372" x1="45.3734" y1="22.2677" x2="34.0635" y2="39.7651" gradientUnits="userSpaceOnUse">
<stop stop-color="#811CCE"/>
<stop offset="0.682" stop-color="#F500D5"/>
<stop offset="1" stop-color="#F500D5"/>
</linearGradient>
<linearGradient id="paint2_linear_189_372" x1="102.503" y1="31.7618" x2="1.19108" y2="29.985" gradientUnits="userSpaceOnUse">
<stop stop-color="#5409EA"/>
<stop offset="0.49" stop-color="#FD00F7"/>
<stop offset="1" stop-color="#FD00F7"/>
</linearGradient>
<clipPath id="clip0_189_372">
<rect width="105" height="42" fill="white" transform="translate(0 0.799805)"/>
</clipPath>
</defs>
</svg>
