<svg width="115" height="115" viewBox="0 0 115 115" fill="none" xmlns="http://www.w3.org/2000/svg">
<rect width="115" height="115" fill="#446FC9"/>
<path d="M49.6797 50.2581C47.745 49.6944 45.8974 49.2139 44.1367 48.8167C43.4113 46.5202 43.045 44.1254 43.0509 41.717C43.0509 31.2091 49.8047 22.6904 58.136 22.6904C66.4673 22.6904 73.2147 31.2011 73.2147 41.7106C73.2196 44.006 72.8872 46.2896 72.2281 48.4884C70.0372 48.9475 67.7032 49.5374 65.2261 50.2581C61.7027 51.2863 58.8535 52.3049 57.4489 52.8286C56.0523 52.3049 53.2032 51.2863 49.6797 50.2581ZM29.1877 63.8618C27.4404 63.8618 25.7324 64.38 24.2795 65.3507C22.8267 66.3215 21.6944 67.7013 21.0258 69.3157C20.3572 70.93 20.1824 72.7064 20.5234 74.4201C20.8644 76.1338 21.7059 77.7079 22.9416 78.9433C24.1772 80.1787 25.7515 81.02 27.4653 81.3607C29.179 81.7014 30.9553 81.5262 32.5696 80.8573C34.1838 80.1884 35.5634 79.0559 36.5339 77.6029C37.5044 76.1499 38.0223 74.4417 38.022 72.6944C38.0215 70.3517 37.0906 68.1051 35.4339 66.4487C33.7772 64.7923 31.5304 63.8618 29.1877 63.8618ZM86.8104 63.8618C85.063 63.8618 83.355 64.38 81.9022 65.3507C80.4493 66.3215 79.317 67.7013 78.6484 69.3157C77.9799 70.93 77.805 72.7064 78.146 74.4201C78.487 76.1338 79.3285 77.7079 80.5642 78.9433C81.7998 80.1787 83.3741 81.02 85.0879 81.3607C86.8016 81.7014 88.578 81.5262 90.1922 80.8573C91.8064 80.1884 93.186 79.0559 94.1565 77.6029C95.127 76.1499 95.6449 74.4417 95.6446 72.6944C95.6441 70.352 94.7134 68.1056 93.0571 66.4493C91.4007 64.7929 89.1544 63.8622 86.812 63.8618H86.8104ZM75.4152 72.6944C75.4177 70.491 76.0581 68.3353 77.2592 66.488C78.4602 64.6407 80.1705 63.1806 82.1834 62.2843V49.8641C71.855 49.8641 57.4489 55.5721 57.4489 55.5721C57.4489 55.5721 43.0429 49.8641 32.7144 49.8641V61.863C35.0006 62.608 36.9925 64.057 38.405 66.0029C39.8175 67.9487 40.5782 70.2915 40.5782 72.696C40.5782 75.1005 39.8175 77.4433 38.405 79.3892C36.9925 81.335 35.0006 82.7841 32.7144 83.529V84.6501C43.0429 84.6501 57.4489 91.3094 57.4489 91.3094C57.4489 91.3094 71.8614 84.6549 82.1834 84.6549V83.1046C80.1705 82.2082 78.4602 80.7482 77.2592 78.9008C76.0581 77.0535 75.4177 74.8979 75.4152 72.6944Z" fill="white"/>
</svg>
