<svg width="259" height="514" viewBox="0 0 259 514" fill="none" xmlns="http://www.w3.org/2000/svg">
<path d="M-70.0625 87.0148C-64.4027 84.1051 -58.7859 81.2176 -52.7488 79.1474C-12.1557 63.2073 82.8673 49.1738 130.127 86.166C164.822 118.012 180.892 156.651 178.055 201.115C170.303 322.271 19.2454 454.858 -54.644 471.302C-104.888 480.28 -148.313 460.553 -177.058 415.712C-212.951 359.601 -216.363 277.57 -185.17 220.675C-160.339 160.284 -120.689 114.244 -70.0625 87.0148ZM-20.7192 453.146C56.8018 413.293 167.461 302.508 174.253 199.731C176.986 157.069 161.564 120.005 128.428 89.5039C82.5975 53.605 -10.9227 67.8197 -50.7117 83.4259C-106.079 105.213 -152.504 154.835 -181.398 223.267C-212.015 278.753 -208.789 358.733 -173.865 413.275C-146.337 456.278 -104.416 475.188 -55.8558 466.52C-43.5293 463.481 -31.7751 459.008 -20.7192 453.146Z" fill="#EF0015"/>
<path d="M71.4809 235.336C71.7036 234.624 72.0854 234.008 72.6266 233.487C73.6807 232.482 75.0673 231.736 76.5413 231.804C77.0317 231.874 77.5235 231.941 78.0139 232.01C78.9511 232.283 79.767 232.776 80.4575 233.487L86.4325 239.34C86.9525 239.841 87.3217 240.435 87.5359 241.122C87.8713 241.782 88.0249 242.494 87.9967 243.256C88.0249 244.02 87.8713 244.729 87.5359 245.391C87.3217 246.076 86.9525 246.671 86.4325 247.174C85.4136 248.143 84.0777 248.861 82.6558 248.795C82.1823 248.731 81.7089 248.664 81.2354 248.598C80.3307 248.335 79.5458 247.86 78.8792 247.174C76.795 245.319 74.7094 243.465 72.6266 241.61C72.0854 241.089 71.7036 240.473 71.4809 239.762C71.1343 239.077 70.975 238.34 71.0032 237.548C70.975 236.758 71.1343 236.02 71.4809 235.336Z" fill="#20A2EC"/>
<path d="M47.4196 243.105C48.3444 242.323 49.5466 241.757 50.8385 241.802C51.2128 241.815 51.5437 241.855 51.9281 241.903C52.7691 242.006 52.5957 241.972 53.3717 242.274C53.7127 242.405 53.9511 242.489 54.2373 242.65C54.4135 242.748 54.5913 242.844 54.7647 242.945C55.1361 243.163 55.6838 243.539 55.9901 243.828C56.3485 244.165 56.6837 244.634 56.9814 245.016C57.438 245.603 57.8817 246.195 58.3426 246.779C59.1056 247.677 59.8686 248.575 60.6316 249.472C61.0867 249.862 61.4076 250.322 61.5954 250.853C61.8873 251.365 62.0217 251.916 61.9972 252.506C61.9972 253.559 61.4885 254.816 60.6316 255.54C59.7414 256.29 58.5738 256.848 57.3326 256.796C56.9178 256.744 56.506 256.695 56.0927 256.643C55.3023 256.44 54.6159 256.072 54.0335 255.54C52.7879 254.557 51.564 253.543 50.2909 252.59C49.6623 252.117 49.0106 251.668 48.3704 251.207C47.7216 250.739 47.2823 250.066 46.8921 249.407C46.6118 248.935 46.3531 248.42 46.1855 247.91C45.9904 247.318 45.9962 246.816 46.002 246.25C46.0135 245.153 46.5207 243.863 47.4196 243.105Z" fill="#20A2EC"/>
<path d="M40.0527 216.701C40.1094 216.274 40.1661 215.846 40.2228 215.419C40.3688 214.792 40.6508 214.246 41.0703 213.78C41.2815 213.418 41.5649 213.13 41.9206 212.915C42.3784 212.49 42.9155 212.202 43.532 212.053C43.6638 212.034 43.797 212.013 43.9288 211.994C44.8769 211.734 45.8222 211.734 46.7704 211.994C47.2309 212.171 47.6859 212.366 48.1309 212.582C48.6128 212.872 48.9741 213.203 49.3568 213.568C50.03 214.211 50.509 214.984 50.9767 215.778C51.4543 216.593 51.9319 217.406 52.4109 218.219C52.554 218.567 52.6986 218.916 52.8432 219.262C53.0217 219.845 53.0486 220.426 52.9197 221.007C52.9197 221.402 52.8205 221.769 52.6277 222.109C52.4534 222.651 52.1572 223.12 51.7377 223.516C51.4486 223.744 51.1595 223.97 50.869 224.198C50.526 224.347 50.1844 224.492 49.8429 224.641C49.2717 224.821 48.7006 224.848 48.1281 224.719C47.5569 224.691 47.024 224.518 46.5309 224.198C45.7004 223.767 44.8684 223.333 44.0379 222.899C43.8438 222.798 43.6496 222.698 43.4555 222.595C42.8503 222.281 42.3259 221.834 41.8313 221.363C41.7619 221.295 41.6896 221.23 41.6216 221.162C40.6508 220.195 39.9181 218.627 40.0074 217.233C40.0187 217.055 40.0371 216.878 40.0527 216.701Z" fill="#20A2EC"/>
</svg>
