<svg width="91" height="440" viewBox="0 0 91 440" fill="none" xmlns="http://www.w3.org/2000/svg">
<path d="M-181.655 379.585C-176.941 383.86 -172.263 388.103 -166.967 391.665C-131.883 417.569 -43.7299 455.718 11.4942 432.218C53.249 410.436 78.7715 377.273 87.5396 333.59C111.41 214.556 -0.185035 47.3899 -67.3007 12.3826C-113.509 -9.29326 -160.56 -1.4783 -199.931 34.3957C-249.124 79.3049 -273.651 157.657 -258.246 220.687C-249.891 285.447 -223.509 340.18 -181.655 379.585ZM-39.231 38.6999C25.3338 97.2589 103.549 232.91 83.5094 333.943C75.1076 375.858 50.6178 407.668 10.7168 428.554C-42.8436 451.368 -129.498 413.432 -163.892 388.06C-211.734 352.685 -243.734 292.738 -253.932 219.159C-269.145 157.64 -245.329 81.22 -197.478 37.5752C-159.758 3.16257 -114.371 -4.25285 -69.7091 16.6883C-58.589 22.8136 -48.3932 30.177 -39.231 38.6999Z" fill="#EF0015"/>
</svg>
