<svg width="286" height="514" viewBox="0 0 286 514" fill="none" xmlns="http://www.w3.org/2000/svg">
<path d="M-43.0625 87.0145C-37.4027 84.1049 -31.7859 81.2173 -25.7488 79.1471C14.8443 63.207 109.867 49.1735 157.127 86.1658C191.822 118.012 207.892 156.651 205.055 201.115C197.303 322.271 46.2454 454.858 -27.644 471.302C-77.8878 480.279 -121.313 460.553 -150.058 415.711C-185.951 359.6 -189.363 277.57 -158.17 220.675C-133.339 160.284 -93.6893 114.244 -43.0625 87.0145ZM6.28075 453.146C83.8018 413.293 194.461 302.508 201.253 199.731C203.986 157.069 188.564 120.005 155.428 89.5036C109.598 53.6048 16.0773 67.8195 -23.7117 83.4257C-79.0794 105.213 -125.504 154.835 -154.398 223.267C-185.015 278.753 -181.789 358.733 -146.865 413.275C-119.337 456.278 -77.4156 475.188 -28.8558 466.519C-16.5293 463.481 -4.7751 459.007 6.28075 453.146Z" fill="#EF0015"/>
<ellipse cx="63.2351" cy="76.3794" rx="43.2351" ry="38.5794" fill="#EF0015"/>
</svg>
