<svg width="63" height="65" viewBox="0 0 63 65" fill="none" xmlns="http://www.w3.org/2000/svg">
<path d="M26.8468 37.9949C27.3519 38.5436 27.6952 39.1827 27.8752 39.9115C28.2191 41.3272 28.1713 42.9008 27.3761 44.1437C27.0701 44.5334 26.766 44.9257 26.4613 45.316C25.756 45.9909 24.9215 46.4512 23.9598 46.6933L15.9039 48.9416C15.2098 49.1413 14.5112 49.1643 13.8092 49.0063C13.0693 48.9665 12.3761 48.7436 11.7307 48.3384C11.0546 47.9806 10.5174 47.4931 10.1117 46.8716C9.62515 46.3433 9.29458 45.7261 9.11914 45.0244C8.78932 43.6575 8.83576 42.1417 9.60366 40.9432C9.8961 40.5653 10.1911 40.1889 10.4848 39.8118C11.165 39.1598 11.9688 38.7176 12.8958 38.4831C15.5442 37.6055 18.1933 36.7267 20.8411 35.8504C21.5623 35.6419 22.2874 35.6196 23.0139 35.782C23.7809 35.8245 24.4985 36.0549 25.1705 36.4754C25.8681 36.8457 26.4277 37.3527 26.8468 37.9949Z" fill="#20A2EC"/>
<path d="M32.1493 13.2724C32.3647 14.4647 32.2539 15.7889 31.5688 16.8851C31.3702 17.2026 31.1702 17.4692 30.9365 17.7782C30.4263 18.4547 30.5429 18.3218 29.8937 18.843C29.6092 19.0726 29.4175 19.2372 29.1352 19.4046C28.9619 19.5081 28.7901 19.6142 28.6159 19.7139C28.2415 19.9265 27.642 20.2128 27.2379 20.3332C26.7676 20.4755 26.1937 20.5312 25.7134 20.5977C24.9775 20.7001 24.2424 20.788 23.5067 20.8955C22.3472 21.1071 21.1878 21.3186 20.0294 21.5309C19.4646 21.7304 18.906 21.7783 18.3517 21.6752C17.7627 21.6722 17.2179 21.5129 16.7192 21.1966C15.8077 20.6703 14.9733 19.6012 14.7745 18.497C14.5705 17.3513 14.6709 16.0611 15.3365 15.012C15.5887 14.6788 15.8372 14.3467 16.0887 14.0147C16.6601 13.4318 17.322 13.0214 18.0736 12.7829C19.548 12.1958 21.0381 11.6429 22.4998 11.0168C23.2238 10.7089 23.9387 10.3691 24.6581 10.0453C25.3876 9.71728 26.1896 9.67306 26.9555 9.66474C27.5043 9.65784 28.0801 9.69163 28.6059 9.80161C29.2156 9.92835 29.6477 10.1845 30.1351 10.4726C31.0788 11.0308 31.9427 12.1152 32.1493 13.2724Z" fill="#20A2EC"/>
<path d="M58.6997 20.095C59.0408 20.3574 59.3833 20.6206 59.7245 20.883C60.1946 21.323 60.5267 21.8404 60.7202 22.4365C60.928 22.8003 61.0359 23.1899 61.0441 23.6054C61.1835 24.2145 61.1646 24.8238 60.985 25.4319C60.9353 25.5554 60.8874 25.6816 60.8378 25.8051C60.5884 26.756 60.1158 27.5746 59.417 28.266C59.0331 28.5762 58.6371 28.8729 58.2274 29.1502C57.7355 29.4226 57.2677 29.5698 56.7605 29.7188C55.8671 29.9803 54.9584 30.0088 54.0367 30.0167C53.0925 30.023 52.1496 30.0301 51.206 30.0385C50.8323 29.988 50.4579 29.9388 50.086 29.891C49.4923 29.7544 48.9757 29.4872 48.5371 29.0851C48.195 28.8876 47.9263 28.6179 47.728 28.2809C47.3458 27.8589 47.0881 27.3681 46.9545 26.8066C46.9018 26.4423 46.8504 26.0788 46.7984 25.7133C46.8413 25.342 46.886 24.9734 46.9282 24.6034C47.0577 24.0187 47.3195 23.5104 47.7182 23.0794C48.0275 22.5985 48.4437 22.2235 48.9675 21.9564C49.756 21.4527 50.5477 20.9492 51.3388 20.4469C51.5232 20.3292 51.7077 20.2115 51.8934 20.0945C52.4682 19.7276 53.1174 19.4969 53.7729 19.3043C53.8663 19.278 53.9586 19.2478 54.0513 19.2228C55.3744 18.8657 57.0991 19.0154 58.2617 19.7897C58.4096 19.8882 58.5539 19.9928 58.6997 20.095Z" fill="#20A2EC"/>
</svg>
