<svg width="52" height="45" viewBox="0 0 52 45" fill="none" xmlns="http://www.w3.org/2000/svg">
<path d="M9.70994 6.82631C7.22606 8.45975 5.18552 10.6885 3.7695 13.3141C2.18425 15.691 1.27227 18.4603 1.13225 21.3247C0.557781 24.1516 0.78365 27.0871 1.78407 29.7973L4.305 34.8509C6.52247 37.9848 9.54532 40.4528 13.0479 41.9875L18.6461 43.7024C22.9723 44.5265 27.434 44.1758 31.5719 42.6865L34.7793 41.8404C37.8318 41.0598 40.6468 39.5414 42.9802 37.4164C45.4641 35.7829 47.5045 33.5537 48.9205 30.9282C50.5058 28.5513 51.4179 25.7823 51.5579 22.918C52.14 20.1354 51.9252 17.2403 50.9388 14.5695L48.3851 9.39173C46.1403 6.28392 43.1245 3.82252 39.6415 2.25537L34.0441 0.540222C29.9279 -0.158106 25.7096 0.134395 21.7348 1.39354L18.5275 2.23962C15.2396 2.97002 12.2006 4.55069 9.70994 6.82631Z" fill="#F6F6F6"/>
</svg>
