<svg width="123" height="440" viewBox="0 0 123 440" fill="none" xmlns="http://www.w3.org/2000/svg">
<path d="M81.3453 379.785C86.0591 384.06 90.7372 388.303 96.0327 391.866C131.117 417.769 219.27 455.918 274.494 432.418C316.249 410.636 341.771 377.473 350.54 333.79C374.41 214.756 262.815 47.5901 195.699 12.5828C149.491 -9.09307 102.44 -1.2781 63.0687 34.5959C13.8757 79.5051 -10.6512 157.857 4.75359 220.887C13.1087 285.647 39.491 340.38 81.3453 379.785ZM223.769 38.9001C288.334 97.4591 366.549 233.11 346.509 334.143C338.108 376.059 313.618 407.868 273.717 428.754C220.156 451.568 133.502 413.633 99.1078 388.26C51.2655 352.885 19.2658 292.938 9.06767 219.36C-6.14499 157.84 17.6712 81.4202 65.5222 37.7753C103.242 3.36277 148.629 -4.05265 193.291 16.8885C204.411 23.0138 214.607 30.3771 223.769 38.9001Z" fill="#EF0015"/>
</svg>
