<svg width="48" height="45" viewBox="0 0 48 45" fill="none" xmlns="http://www.w3.org/2000/svg">
<path d="M31.4809 23.537C31.7036 22.8252 32.0854 22.2084 32.6266 21.688C33.6807 20.6824 35.0673 19.937 36.5413 20.0042C37.0317 20.0744 37.5235 20.1416 38.0139 20.2103C38.9511 20.4836 39.767 20.9762 40.4575 21.688L46.4325 27.5404C46.9525 28.0418 47.3217 28.6352 47.5359 29.3222C47.8713 29.9829 48.0249 30.6947 47.9967 31.4562C48.0249 32.2206 47.8713 32.9295 47.5359 33.5916C47.3217 34.2772 46.9525 34.872 46.4325 35.3748C45.4136 36.3439 44.0777 37.0616 42.6558 36.9958C42.1823 36.9315 41.7089 36.8643 41.2354 36.7985C40.3307 36.5354 39.5458 36.0604 38.8792 35.3748C36.795 33.52 34.7094 31.6652 32.6266 29.8104C32.0854 29.29 31.7036 28.6732 31.4809 27.9629C31.1343 27.2773 30.975 26.5407 31.0032 25.7485C30.975 24.9592 31.1343 24.221 31.4809 23.537Z" fill="#20A2EC"/>
<path d="M7.41956 31.3062C8.34438 30.5235 9.54664 29.9573 10.8385 30.0025C11.2128 30.0158 11.5437 30.0557 11.9281 30.1035C12.7691 30.2072 12.5957 30.1726 13.3717 30.4743C13.7127 30.6058 13.9511 30.6896 14.2373 30.8504C14.4135 30.9487 14.5913 31.0444 14.7647 31.1454C15.1361 31.3633 15.6838 31.7394 15.9901 32.0291C16.3485 32.3653 16.6837 32.8344 16.9814 33.2172C17.438 33.8032 17.8817 34.3959 18.3426 34.9793C19.1056 35.8777 19.8686 36.776 20.6316 37.673C21.0867 38.0624 21.4076 38.5222 21.5954 39.0538C21.8873 39.5654 22.0217 40.1169 21.9972 40.7069C21.9972 41.7594 21.4885 43.0166 20.6316 43.7408C19.7414 44.4904 18.5738 45.0485 17.3326 44.9967C16.9178 44.9448 16.506 44.8957 16.0927 44.8438C15.3023 44.6405 14.6159 44.2724 14.0335 43.7408C12.7879 42.7574 11.564 41.7435 10.2909 40.7906C9.66228 40.3176 9.01056 39.8684 8.3704 39.4072C7.72158 38.9395 7.28229 38.267 6.89213 37.6079C6.61179 37.1361 6.35311 36.6205 6.18548 36.1102C5.9904 35.5188 5.99618 35.0165 6.00196 34.4504C6.01352 33.354 6.52074 32.0637 7.41956 31.3062Z" fill="#20A2EC"/>
<path d="M0.0527306 4.90134C0.10942 4.47464 0.166101 4.04649 0.222791 3.61978C0.368764 2.9927 0.650789 2.44635 1.07029 1.98072C1.28145 1.61889 1.5649 1.33057 1.92062 1.11578C2.37838 0.690514 2.91549 0.402203 3.53199 0.253721C3.66379 0.234981 3.79701 0.213352 3.92881 0.194612C4.87694 -0.0648706 5.82223 -0.0648706 6.77035 0.194612C7.23095 0.371925 7.68589 0.566531 8.1309 0.782766C8.61276 1.07252 8.97413 1.4041 9.35678 1.76881C10.03 2.41175 10.509 3.18443 10.9767 3.97873C11.4543 4.79322 11.9319 5.60627 12.4109 6.41932C12.554 6.76818 12.6986 7.11704 12.8432 7.46301C13.0217 8.04541 13.0486 8.62636 12.9197 9.20731C12.9197 9.6023 12.8205 9.9699 12.6277 10.3101C12.4534 10.8521 12.1572 11.3207 11.7377 11.7171C11.4486 11.9449 11.1595 12.1712 10.869 12.3989C10.526 12.5474 10.1844 12.693 9.84288 12.8415C9.27174 13.0217 8.70062 13.0491 8.12806 12.9194C7.55692 12.892 7.02404 12.719 6.53085 12.3989C5.70036 11.9679 4.86844 11.534 4.03794 11.1001C3.84378 10.9992 3.64964 10.8983 3.45548 10.7959C2.85033 10.4817 2.32593 10.0348 1.83132 9.56337C1.76187 9.49562 1.6896 9.43075 1.62157 9.36299C0.650774 8.3957 -0.0819149 6.82727 0.00737 5.43327C0.0187073 5.25596 0.0371408 5.07865 0.0527306 4.90134Z" fill="#20A2EC"/>
</svg>
