<svg width="236" height="554" viewBox="0 0 236 554" fill="none" xmlns="http://www.w3.org/2000/svg">
<path d="M376.76 426.785C372.046 431.06 367.368 435.303 362.073 438.865C326.988 464.769 238.835 502.918 183.611 479.418C141.856 457.636 116.334 424.473 107.566 380.79C83.6959 261.756 195.291 94.59 262.406 59.5827C308.614 37.9069 355.666 45.7218 395.037 81.5959C444.23 126.505 468.757 204.857 453.352 267.887C444.997 332.647 418.614 387.38 376.76 426.785ZM234.336 85.9C169.772 144.459 91.5562 280.11 111.596 381.143C119.998 423.058 144.488 454.868 184.389 475.754C237.949 498.568 324.604 460.633 358.998 435.26C406.84 399.885 438.84 339.938 449.038 266.36C464.25 204.84 440.434 128.42 392.583 84.7753C354.863 50.3627 309.476 42.9473 264.815 63.8885C253.694 70.0137 243.499 77.3771 234.336 85.9Z" fill="#EF0015"/>
<ellipse cx="117.235" cy="413.579" rx="43.2351" ry="38.5794" fill="#EF0015"/>
</svg>
