<svg width="160" height="23" viewBox="0 0 160 23" fill="none" xmlns="http://www.w3.org/2000/svg">
<path d="M0.42 8.53V1.51C2.54 0.989999 4.66 0.989999 6.78 1.51V7.9C6.78 9.02 7.29 9.58 8.31 9.58C9.03 9.58 9.65 9.4 10.17 9.04V1.51C12.31 0.969999 14.45 0.969999 16.59 1.51V21.76C14.45 22.32 12.31 22.32 10.17 21.76V14.44C8.87 14.98 7.42 15.25 5.82 15.25C2.22 15.25 0.42 13.01 0.42 8.53ZM33.7029 21.79C31.8229 22.29 29.9429 22.29 28.0629 21.79V16.21C28.0629 15.59 28.0829 15.09 28.1229 14.71C26.5429 16.91 25.2329 19.27 24.1929 21.79C22.2329 22.27 20.2729 22.27 18.3129 21.79V6.64C20.1929 6.14 22.0829 6.14 23.9829 6.64V12.34C23.9829 12.94 23.9529 13.43 23.8929 13.81C24.9129 11.13 26.2229 8.74 27.8229 6.64C29.7829 6.16 31.7429 6.16 33.7029 6.64V21.79ZM49.9062 6.4C50.3662 8.16 50.3662 9.93 49.9062 11.71H45.8862V21.79C43.7862 22.33 41.6862 22.33 39.5862 21.79V11.71H35.5662C35.1062 9.93 35.1062 8.16 35.5662 6.4H49.9062ZM54.6021 11.11C54.0421 10.11 53.7621 9.3 53.7621 8.68C53.7621 8.04 53.9321 7.63 54.2721 7.45C55.4121 6.95 56.9721 6.7 58.9521 6.7C60.9521 6.7 62.3621 7.17 63.1821 8.11C64.0021 9.03 64.4121 10.4 64.4121 12.22V16.96H65.4321C65.7721 16.96 66.0321 17.16 66.2121 17.56C66.4121 17.96 66.5121 18.51 66.5121 19.21C66.5121 19.91 66.3321 20.6 65.9721 21.28C65.6321 21.96 65.1621 22.3 64.5621 22.3C63.4821 22.3 62.6121 22.01 61.9521 21.43C61.6521 21.19 61.4221 20.9 61.2621 20.56C60.3421 21.72 58.9121 22.3 56.9721 22.3C55.5121 22.3 54.2821 21.78 53.2821 20.74C52.2821 19.7 51.7821 18.47 51.7821 17.05C51.7821 13.79 53.7321 12.16 57.6321 12.16H59.2821V11.86C59.2821 11.34 59.1921 11.01 59.0121 10.87C58.8521 10.71 58.4621 10.63 57.8421 10.63C57.0821 10.63 56.0021 10.79 54.6021 11.11ZM57.0021 16.63C57.0021 17.07 57.1221 17.41 57.3621 17.65C57.6021 17.87 57.9021 17.98 58.2621 17.98C58.6421 17.98 58.9821 17.83 59.2821 17.53V15.22H58.4421C57.4821 15.22 57.0021 15.69 57.0021 16.63ZM80.0658 1.3C79.9258 3.92 78.4558 5.23 75.6558 5.23C72.8958 5.23 71.4458 3.92 71.3058 1.3C72.4258 0.919998 73.5458 0.919998 74.6658 1.3C74.7858 1.84 75.1158 2.11 75.6558 2.11C76.2358 2.11 76.5858 1.84 76.7058 1.3C77.8258 0.919998 78.9458 0.919998 80.0658 1.3ZM83.3658 21.79C81.4858 22.29 79.6058 22.29 77.7258 21.79V16.21C77.7258 15.59 77.7458 15.09 77.7858 14.71C76.2058 16.91 74.8958 19.27 73.8558 21.79C71.8958 22.27 69.9358 22.27 67.9758 21.79V6.64C69.8558 6.14 71.7458 6.14 73.6458 6.64V12.34C73.6458 12.94 73.6158 13.43 73.5558 13.81C74.5758 11.13 75.8858 8.74 77.4858 6.64C79.4458 6.16 81.4058 6.16 83.3658 6.64V21.79ZM100.632 0.729998C102.092 0.729998 103.372 0.939999 104.472 1.36C105.592 1.76 106.152 2.31 106.152 3.01C106.152 3.71 105.882 4.58 105.342 5.62C104.822 6.64 104.382 7.15 104.022 7.15C103.922 7.15 103.802 7.1 103.662 7C103.542 6.88 103.242 6.76 102.762 6.64C102.302 6.5 101.902 6.43 101.562 6.43C100.402 6.43 99.462 6.84 98.742 7.66C98.042 8.48 97.692 9.74 97.692 11.44C97.692 13.12 98.052 14.37 98.772 15.19C99.512 16.01 100.442 16.42 101.562 16.42C102.022 16.42 102.532 16.36 103.092 16.24C103.672 16.1 104.082 15.91 104.322 15.67C104.362 15.63 104.442 15.61 104.562 15.61C104.682 15.61 104.902 15.84 105.222 16.3C105.562 16.74 105.872 17.33 106.152 18.07C106.432 18.79 106.572 19.35 106.572 19.75C106.572 20.53 105.972 21.15 104.772 21.61C103.572 22.07 102.152 22.3 100.512 22.3C97.872 22.3 95.702 21.37 94.002 19.51C92.302 17.65 91.452 15.03 91.452 11.65C91.452 8.25 92.322 5.58 94.062 3.64C95.822 1.7 98.012 0.729998 100.632 0.729998ZM110.849 11.11C110.289 10.11 110.009 9.3 110.009 8.68C110.009 8.04 110.179 7.63 110.519 7.45C111.659 6.95 113.219 6.7 115.199 6.7C117.199 6.7 118.609 7.17 119.429 8.11C120.249 9.03 120.659 10.4 120.659 12.22V16.96H121.679C122.019 16.96 122.279 17.16 122.459 17.56C122.659 17.96 122.759 18.51 122.759 19.21C122.759 19.91 122.579 20.6 122.219 21.28C121.879 21.96 121.409 22.3 120.809 22.3C119.729 22.3 118.859 22.01 118.199 21.43C117.899 21.19 117.669 20.9 117.509 20.56C116.589 21.72 115.159 22.3 113.219 22.3C111.759 22.3 110.529 21.78 109.529 20.74C108.529 19.7 108.029 18.47 108.029 17.05C108.029 13.79 109.979 12.16 113.879 12.16H115.529V11.86C115.529 11.34 115.439 11.01 115.259 10.87C115.099 10.71 114.709 10.63 114.089 10.63C113.329 10.63 112.249 10.79 110.849 11.11ZM113.249 16.63C113.249 17.07 113.369 17.41 113.609 17.65C113.849 17.87 114.149 17.98 114.509 17.98C114.889 17.98 115.229 17.83 115.529 17.53V15.22H114.689C113.729 15.22 113.249 15.69 113.249 16.63ZM125.512 6.64C127.392 6.14 129.262 6.14 131.122 6.64C132.442 8.98 133.512 11.42 134.332 13.96H134.392C135.132 11.42 136.142 8.98 137.422 6.64C139.282 6.16 141.142 6.16 143.002 6.64C143.782 11.76 144.222 16.81 144.322 21.79C142.502 22.25 140.692 22.25 138.892 21.79C138.832 19.07 138.712 16.84 138.532 15.1H138.472C137.692 16.52 137.022 18.1 136.462 19.84C135.042 20.3 133.622 20.3 132.202 19.84C131.602 18.1 130.892 16.52 130.072 15.1H130.042C129.822 17.14 129.692 19.37 129.652 21.79C127.832 22.25 126.012 22.25 124.192 21.79C124.292 16.81 124.732 11.76 125.512 6.64ZM158.503 15.7C158.503 15.82 157.783 15.88 156.343 15.88C154.923 15.88 154.213 15.83 154.213 15.73L153.613 0.939999C153.613 0.779999 154.523 0.699999 156.343 0.699999C158.183 0.699999 159.103 0.769999 159.103 0.91L158.503 15.7ZM153.553 17.5C153.553 17.36 154.473 17.29 156.313 17.29C158.173 17.29 159.103 17.35 159.103 17.47V21.79C159.103 21.99 158.173 22.09 156.313 22.09C154.473 22.09 153.553 22.03 153.553 21.91V17.5Z" fill="#191816"/>
</svg>
