<svg width="143" height="57" viewBox="0 0 143 57" fill="none" xmlns="http://www.w3.org/2000/svg">
<g clip-path="url(#clip0_165_235)">
<path fill-rule="evenodd" clip-rule="evenodd" d="M99.689 27.7215C99.689 27.7215 95.1148 29.3488 97.7286 31.436C100.306 33.5585 104.663 27.2263 113.012 31.8605C112.976 31.8605 109.055 24.8207 99.689 27.7215Z" fill="#D507D3"/>
<path fill-rule="evenodd" clip-rule="evenodd" d="M22.2898 29.1376C23.996 28.9961 25.7023 30.0574 26.1017 31.7201C26.501 33.4535 25.3393 35.2576 23.3063 35.6468C21.0554 36.0713 19.0951 34.5855 18.9861 32.6398C18.8409 30.8003 20.3657 29.2791 22.2898 29.1376Z" fill="#6622CC"/>
<path fill-rule="evenodd" clip-rule="evenodd" d="M0 11.8377C0.0363036 19.0898 5.66337 22.7335 11.2178 22.7335C15.2475 22.7335 19.3861 21.0355 20.9835 16.5781C21.7459 14.4909 21.7459 12.4745 21.6007 10.3519H11.2541V15.0569H15.901C14.8845 17.1087 13.4686 17.6747 11.2178 17.6747C7.91419 17.6747 5.77228 15.3753 5.77228 11.8377C5.77228 8.58315 7.69637 5.89458 11.2178 5.89458C13.4323 5.89458 14.8845 6.63748 15.7921 8.44165H21.2739C20.2211 3.13526 15.6106 0.906585 11.2178 0.906585C5.66337 0.906585 0.0363036 4.5503 0 11.8377ZM39.1353 22.4859H44.6172V21.6722L34.7426 0.906585H32.3465L22.5083 21.6722V22.4505H27.9538L29.2244 19.7619H37.8647L39.1353 22.4859ZM36.0495 15.1277H31.0759L33.5446 9.5383L36.0495 15.1277ZM50.571 15.9767H45.1617C45.0528 25.3513 62.8416 25.2098 62.8416 16.2597C62.8416 10.918 58.5941 10.2812 54.2376 9.82131C52.2772 9.60905 50.6436 9.29067 50.7525 7.66338C50.934 5.15169 56.8152 4.90406 56.8152 7.73413H62.1155C62.2244 -1.4636 45.2343 -1.4636 45.4158 7.73413C45.4884 12.3684 48.6106 13.9603 53.3663 14.2787C55.5446 14.3848 57.3597 14.7386 57.3597 16.2243C57.4323 18.7006 50.571 18.6653 50.571 15.9767ZM78.8878 15.5522V10.7057H71.8812V6.03609H79.8317V1.15422H66.2178V22.4505H71.8812V15.5522H78.8878ZM104.409 11.8377C104.409 -2.91401 81.9736 -2.91401 81.9736 11.8377C81.9736 26.6248 104.409 26.6248 104.409 11.8377ZM87.7459 11.8377C87.7459 4.16117 98.7096 4.16117 98.7096 11.8377C98.7096 19.585 87.7459 19.585 87.7459 11.8377ZM122.053 14.9154C127.571 11.2717 126.01 1.18959 117.406 1.15422H107.822V22.4505H113.413V16.189H116.317L120.056 22.4505H126.337V21.6722L122.053 14.9154ZM117.406 11.3778H113.413V6.03609C114.719 6.03609 116.099 6.00071 117.406 6.03609C120.601 6.07146 120.455 11.3778 117.406 11.3778ZM132.145 6.03609V22.4859H137.663V6.03609H143V1.15422H126.736V6.03609H132.145Z" fill="black"/>
<path fill-rule="evenodd" clip-rule="evenodd" d="M139.551 30.553C139.551 30.553 137.845 54.1133 101.759 47.6041C56.7428 39.5031 63.2774 32.0741 36.3038 41.095C6.64375 51.0002 4.32031 33.5599 4.32031 33.5599C4.32031 33.5599 14.8484 43.925 33.2543 37.2036C40.8418 34.4443 50.5711 26.7324 62.8055 26.9092C79.5777 27.1569 77.6173 42.3685 98.7461 42.5454C111.198 42.6515 124.667 32.2864 125.066 32.3571C125.175 32.3925 139.261 28.7488 139.551 30.553Z" fill="url(#paint0_linear_165_235)"/>
<path fill-rule="evenodd" clip-rule="evenodd" d="M11.0716 46.366C11.0716 46.366 23.7416 54.3964 39.8241 46.932C53.7647 40.4583 60.0089 42.0856 66.0716 43.5713C78.56 46.649 86.2564 58.0754 103.283 52.6276C110.035 50.4696 111.015 40.812 111.015 40.812C111.015 40.812 95.1508 28.2536 78.7053 38.0527L61.2069 36.7792L46.8307 39.397C46.8307 39.397 18.9132 49.8682 5.80757 33.7722C5.29932 33.1355 3.81087 33.0647 3.41153 32.6756C2.17721 31.5082 1.66896 30.4115 1.56005 30.9421C0.797669 34.8335 3.48414 41.7672 11.0716 46.366Z" fill="url(#paint1_linear_165_235)"/>
<path fill-rule="evenodd" clip-rule="evenodd" d="M6.64412 39.4659C6.64412 39.4659 16.5913 48.2745 33.0369 43.6403C48.9016 39.1829 54.093 37.1311 65.3834 38.8645C78.8158 40.881 84.0798 53.7224 95.1524 53.8639C104.773 54.0054 108.621 50.3263 116.499 41.4824C121.436 35.9637 126.555 31.0465 137.628 30.7281C141.476 30.622 139.37 29.7022 134.469 29.4546C128.588 29.1716 118.241 30.056 108.911 37.591C92.5385 50.857 82.7728 25.7047 45.4164 37.7325C20.9841 45.586 12.2349 39.0768 2.86854 31.3649C0.472503 29.3838 2.17877 33.0629 2.17877 33.0629C2.17877 33.0629 4.32069 37.4849 6.64412 39.4659Z" fill="url(#paint2_linear_165_235)"/>
<path fill-rule="evenodd" clip-rule="evenodd" d="M125.284 49.444C127.208 49.3733 128.914 50.7529 129.168 52.6278C129.386 54.4674 128.188 56.2362 126.336 56.6961C124.34 57.2267 122.307 56.0593 121.762 54.1136C121.726 53.9721 121.689 53.8306 121.689 53.7245C121.363 51.7081 122.779 49.8331 124.848 49.5148C124.993 49.444 125.138 49.444 125.284 49.444Z" fill="#FADD2E"/>
<path fill-rule="evenodd" clip-rule="evenodd" d="M47.2675 48.0967C47.2675 48.0967 42.9836 52.0942 47.6668 53.2616C52.713 54.5352 55.5084 45.9742 70.3566 52.9079C70.3566 52.9432 57.4325 40.0664 47.2675 48.0967Z" fill="#781ECD"/>
</g>
<defs>
<linearGradient id="paint0_linear_165_235" x1="69.9842" y1="26.3821" x2="76.9285" y2="48.315" gradientUnits="userSpaceOnUse">
<stop stop-color="#F9C540"/>
<stop offset="1" stop-color="#FAE925"/>
</linearGradient>
<linearGradient id="paint1_linear_165_235" x1="61.7934" y1="29.4233" x2="46.8471" y2="53.0422" gradientUnits="userSpaceOnUse">
<stop stop-color="#811CCE"/>
<stop offset="0.682" stop-color="#F500D5"/>
<stop offset="1" stop-color="#F500D5"/>
</linearGradient>
<linearGradient id="paint2_linear_165_235" x1="139.598" y1="42.0834" x2="1.62316" y2="39.6118" gradientUnits="userSpaceOnUse">
<stop stop-color="#5409EA"/>
<stop offset="0.49" stop-color="#FD00F7"/>
<stop offset="1" stop-color="#FD00F7"/>
</linearGradient>
<clipPath id="clip0_165_235">
<rect width="143" height="56" fill="white" transform="translate(0 0.799805)"/>
</clipPath>
</defs>
</svg>
