<svg width="16" height="16" viewBox="0 0 16 16" fill="none" xmlns="http://www.w3.org/2000/svg">
<path d="M16 8C16 12.4183 12.4183 16 8 16C3.58173 16 0 12.4183 0 8C0 3.58173 3.58173 0 8 0C12.4183 0 16 3.58173 16 8ZM8.28667 5.90595C7.50856 6.2296 5.95342 6.89946 3.62126 7.91555C3.24255 8.06615 3.04416 8.21349 3.0261 8.35754C2.99558 8.60101 3.30047 8.69687 3.71565 8.82742C3.77211 8.84518 3.83063 8.86358 3.89062 8.88307C4.29909 9.01585 4.84854 9.17119 5.13418 9.17736C5.39329 9.18296 5.68248 9.07614 6.00175 8.8569C8.18077 7.386 9.30558 6.64255 9.37619 6.62651C9.42602 6.61521 9.49506 6.60099 9.54183 6.64257C9.58862 6.68415 9.58401 6.76288 9.57906 6.78401C9.54886 6.91277 8.35207 8.02541 7.73273 8.6012C7.53966 8.7807 7.40271 8.90802 7.37471 8.9371C7.31199 9.00224 7.24808 9.06385 7.18664 9.12307C6.80717 9.48889 6.52259 9.76322 7.2024 10.2112C7.52907 10.4265 7.79049 10.6045 8.05128 10.7821C8.3361 10.9761 8.62017 11.1695 8.98774 11.4105C9.08137 11.4719 9.17081 11.5355 9.25792 11.5977C9.58937 11.8339 9.88715 12.0463 10.2551 12.0125C10.4688 11.9928 10.6896 11.7918 10.8018 11.1922C11.0668 9.77544 11.5878 6.70563 11.7081 5.44065C11.7186 5.32982 11.7054 5.18798 11.6947 5.12571C11.6841 5.06345 11.6618 4.97474 11.5809 4.90906C11.485 4.83129 11.3371 4.81489 11.2709 4.816C10.97 4.82136 10.5084 4.98187 8.28667 5.90595Z" fill="#191816"/>
</svg>
