<svg width="16" height="16" viewBox="0 0 16 16" fill="none" xmlns="http://www.w3.org/2000/svg">
<path d="M6.77713 10.14V5.8622L10.4438 8.00109L6.77713 10.14ZM15.186 5.05771C15.186 5.05771 15.043 4.04077 14.603 3.59307C14.0457 3.00529 13.4201 2.99639 13.1334 2.96155C11.0815 2.81257 8.00228 2.80664 8.00228 2.80664H7.99642C7.99642 2.80664 4.91788 2.81257 2.86528 2.96155C2.57855 2.99639 1.95375 3.00232 1.39568 3.59011C0.955682 4.0378 0.812682 5.05549 0.812682 5.05549C0.812682 5.05549 0.666016 6.25107 0.666016 7.44517V8.56441C0.666016 9.75851 0.812682 10.9526 0.812682 10.9526C0.812682 10.9526 0.955682 11.9696 1.39568 12.4173C1.95375 13.0043 2.68635 12.9858 3.01268 13.0473C4.18602 13.1607 7.99935 13.1955 7.99935 13.1955C7.99935 13.1955 11.0815 13.1911 13.1334 13.0421C13.4201 13.0073 14.0457 13.0043 14.603 12.4173C15.043 11.9696 15.186 10.9526 15.186 10.9526C15.186 10.9526 15.3327 9.75851 15.3327 8.56441V7.44517C15.3327 6.25107 15.186 5.05771 15.186 5.05771Z" fill="#191816"/>
</svg>
