<svg width="16" height="16" viewBox="0 0 16 16" fill="none" xmlns="http://www.w3.org/2000/svg">
<path d="M13.6703 7.28055C13.8793 6.99675 14.0443 6.76941 14.1667 6.59781C15.0475 5.36581 15.4288 4.57894 15.3122 4.23574L15.266 4.15507C15.2359 4.1074 15.1567 4.06267 15.0299 4.02307C14.9023 3.98274 14.7395 3.97614 14.5407 4.00253L12.3415 4.01867C12.2909 4.01353 12.2395 4.015 12.1889 4.02307C12.1376 4.03113 12.1046 4.0392 12.0892 4.04653C12.0745 4.05533 12.0621 4.06193 12.0511 4.06707L12.021 4.09127C11.9953 4.10667 11.9675 4.13527 11.9374 4.1756C11.9059 4.2152 11.8809 4.26214 11.8604 4.3164C11.6213 4.96394 11.3485 5.56674 11.0435 6.12334C10.855 6.45554 10.6819 6.74375 10.5243 6.98721C10.3666 7.23141 10.2339 7.41035 10.1268 7.52548C10.0205 7.64062 9.92365 7.73302 9.83712 7.80268C9.74985 7.87235 9.68385 7.90168 9.63838 7.89142C9.59292 7.88042 9.54892 7.87015 9.50858 7.85842C9.43745 7.81075 9.38025 7.74548 9.33698 7.66188C9.29298 7.57975 9.26438 7.47488 9.24898 7.34875C9.23358 7.22335 9.22478 7.11408 9.22185 7.02315C9.21965 6.93221 9.22112 6.80388 9.22625 6.63741C9.23138 6.47168 9.23358 6.35948 9.23358 6.30008C9.23358 6.09694 9.23725 5.87548 9.24532 5.63714C9.25265 5.39954 9.25925 5.21034 9.26438 5.07101C9.26952 4.93241 9.27172 4.78427 9.27172 4.62954C9.27172 4.47407 9.26292 4.35234 9.24532 4.2636C9.22698 4.1756 9.20058 4.0898 9.16465 4.00693C9.12872 3.92407 9.07665 3.85953 9.00845 3.81407C8.93951 3.7686 8.85371 3.73193 8.75251 3.70553C8.48265 3.641 8.13871 3.60653 7.72144 3.60067C6.77471 3.5904 6.16604 3.65493 5.8969 3.79353C5.78984 3.85293 5.69304 3.9336 5.6065 4.0348C5.51483 4.15287 5.50163 4.2174 5.56763 4.22767C5.87417 4.27607 6.08977 4.3912 6.21737 4.57307L6.26284 4.66914C6.29877 4.73954 6.33397 4.86274 6.3699 5.03947C6.4051 5.21547 6.42857 5.41127 6.43884 5.62541C6.4645 6.01701 6.4645 6.35141 6.43884 6.63008C6.41317 6.90801 6.3897 7.12508 6.36624 7.28055C6.34277 7.43528 6.30904 7.56142 6.26357 7.65748C6.21737 7.75502 6.18657 7.81368 6.17117 7.83495C6.15577 7.85622 6.1433 7.86942 6.13304 7.87528C6.06704 7.90168 5.9981 7.91488 5.92697 7.91488C5.85584 7.91488 5.7693 7.87748 5.66737 7.80195C5.56543 7.72788 5.45983 7.62448 5.35057 7.49322C5.2413 7.36195 5.11737 7.17861 4.98023 6.94248C4.8431 6.70708 4.7001 6.42841 4.5527 6.10721L4.43023 5.87401C4.3547 5.72441 4.24983 5.50661 4.11783 5.21987C3.9851 4.93314 3.86776 4.65594 3.76656 4.38827C3.72549 4.27607 3.66389 4.19027 3.58323 4.13087L3.54436 4.10667C3.51943 4.0854 3.47836 4.06267 3.42263 4.0392C3.36689 4.01427 3.30823 3.9974 3.24663 3.9864L1.15442 4.00253C0.940283 4.00253 0.795816 4.05387 0.718816 4.15507L0.688749 4.20347C0.673349 4.2306 0.666016 4.27314 0.666016 4.3318C0.666016 4.3912 0.681416 4.46307 0.712216 4.54887C1.01728 5.30421 1.34948 6.03241 1.70809 6.73421C2.06742 7.43528 2.37909 8.00068 2.64382 8.42895C2.90856 8.85795 3.17769 9.26202 3.45343 9.64262C3.72843 10.0232 3.9103 10.266 3.99903 10.373C4.0885 10.4808 4.15816 10.5608 4.20876 10.6143L4.40016 10.8079C4.5219 10.9362 4.70156 11.0902 4.93843 11.2692C5.17457 11.4488 5.4371 11.6256 5.7253 11.7994C6.01204 11.9739 6.34717 12.1154 6.72924 12.2254C7.11057 12.3354 7.48238 12.3794 7.84391 12.3582H8.72171C8.90065 12.342 9.03558 12.2834 9.12652 12.1814L9.15732 12.1411C9.17785 12.1096 9.19691 12.0597 9.21451 11.993C9.23211 11.9255 9.24165 11.8522 9.24165 11.7722C9.23652 11.542 9.25265 11.3337 9.29078 11.1489C9.32965 10.9641 9.37218 10.8255 9.42058 10.7309C9.46898 10.6378 9.52398 10.5586 9.58558 10.494C9.64645 10.4295 9.68898 10.3914 9.71538 10.3782C9.74032 10.365 9.76085 10.3554 9.77625 10.3496C9.89798 10.307 10.0417 10.3481 10.2075 10.4742C10.3732 10.6004 10.5287 10.7551 10.6731 10.9399C10.8183 11.1254 10.9929 11.3322 11.1967 11.5625C11.3999 11.7935 11.5781 11.9644 11.7306 12.0773L11.8839 12.1734C11.9851 12.2379 12.1178 12.2966 12.2813 12.3501C12.4434 12.4036 12.5864 12.4176 12.7089 12.3904L14.6639 12.3582C14.8568 12.3582 15.0071 12.3244 15.1142 12.2577C15.2205 12.191 15.2843 12.1169 15.3049 12.037C15.3254 11.9563 15.3261 11.8661 15.3085 11.7634C15.2909 11.6622 15.2726 11.5911 15.2557 11.5515C15.2374 11.5112 15.2205 11.4774 15.2051 11.4503C14.9514 10.9692 14.4645 10.3767 13.7465 9.67562L13.7311 9.65949L13.7238 9.65069L13.7165 9.64336H13.7084C13.3828 9.31629 13.1767 9.09702 13.0902 8.98409C12.9325 8.77069 12.8966 8.55289 12.9839 8.33362C13.044 8.16715 13.2728 7.81588 13.6703 7.28055Z" fill="#191816"/>
</svg>
